<svg id="uuid-daec4236-955b-487d-8875-577195fd0b1a" xmlns="http://www.w3.org/2000/svg" viewBox="0 0 92.31 92.31"><g id="uuid-8276abcb-d64e-4f42-a48d-975bb8e25d0b"><rect width="92.31" height="92.31" rx="13.99" ry="13.99"/><path d="M63.17,27.11l-11.55,23.63-7.17,15.3c-.15.43-.46.78-.87.99-.41.2-.88.23-1.32.08-.44-.15-.79-.46-.99-.87l-16.54-33.83,3.1-1.52,15.88,32.47,1.55-3.31L29.14,27.07l-8.22,4.02,17.79,36.39c.54,1.1,1.47,1.92,2.62,2.32,1.16.4,2.4.32,3.49-.22.24-.11.47-.25.68-.41.28-.2.52-.5.69-.84.47-.97,1.68-3.47,1.73-3.58l16.54-33.83,3.1,1.52-16.54,33.83c-.2.41-.55.72-.99.87-.44.15-.9.12-1.32-.08-.02,0-.04-.03-.06-.04l-1.21,2.59s.01,0,.02.01c.64.31,1.32.47,2.01.47.5,0,1-.08,1.49-.25,1.16-.4,2.09-1.22,2.62-2.32l17.79-36.39-8.22-4.02Z" style="fill:#fff;"/></g></svg>