<svg width="503" height="419" viewBox="0 0 503 419" fill="none" xmlns="http://www.w3.org/2000/svg">
<path d="M420.382 0.360896L305.477 230.533L234.233 379.627C232.771 383.922 229.666 387.323 225.647 389.292C221.445 391.261 216.878 391.618 212.494 390.008C208.11 388.576 204.639 385.533 202.629 381.595L37.8535 51.9081L68.7261 37.2315L226.743 353.674L242.088 321.457L81.6963 0.00292969L0.0390625 39.2003L177.054 393.945C182.352 404.684 191.669 412.739 203.177 416.497C214.686 420.435 226.926 419.54 237.886 414.349C240.261 413.275 242.453 411.844 244.645 410.412C247.386 408.443 249.76 405.579 251.587 402.178C256.154 392.692 268.394 368.351 268.759 367.277L433.352 37.4104L464.225 52.2661L299.632 381.953C297.622 386.07 294.151 388.934 289.767 390.545C285.383 391.976 280.816 391.618 276.614 389.65C276.614 389.65 276.249 389.292 276.066 389.292L264.009 414.528C264.009 414.528 264.009 414.528 264.192 414.528C270.586 417.571 277.345 419.003 284.104 419.003C289.036 419.003 294.151 418.108 298.901 416.497C310.41 412.56 319.726 404.684 325.024 393.945L502.039 39.5583L420.382 0.360896Z" fill="white"/>
</svg>
