<svg width="503" height="418" viewBox="0 0 503 418" fill="none" xmlns="http://www.w3.org/2000/svg">
<path d="M420.382 0.359615L305.477 229.983L234.233 378.72C232.771 383.005 229.666 386.398 225.647 388.362C221.445 390.326 216.878 390.683 212.494 389.076C208.11 387.648 204.639 384.612 202.629 380.684L37.8535 51.7838L68.7261 37.1422L226.743 352.829L242.088 320.689L81.6963 0.00250244L0.0390625 39.1063L177.054 393.005C182.352 403.718 191.669 411.753 203.177 415.503C214.686 419.431 226.926 418.538 237.886 413.36C240.261 412.289 242.453 410.86 244.645 409.432C247.386 407.468 249.76 404.611 251.587 401.218C256.154 391.755 268.394 367.471 268.759 366.4L433.352 37.3207L464.225 52.1409L299.632 381.041C297.622 385.148 294.151 388.005 289.767 389.612C285.383 391.041 280.816 390.683 276.614 388.719C276.614 388.719 276.249 388.362 276.066 388.362L264.009 413.539C264.009 413.539 264.009 413.539 264.192 413.539C270.586 416.574 277.345 418.003 284.104 418.003C289.036 418.003 294.151 417.11 298.901 415.503C310.41 411.574 319.726 403.718 325.024 393.005L502.039 39.4634L420.382 0.359615Z" fill="black"/>
</svg>
