<?xml version="1.0" encoding="UTF-8"?>
<svg xmlns="http://www.w3.org/2000/svg" width="980" height="560" viewBox="0 0 980 560">
<rect width="100%" height="100%" fill="#ffffff"/>
<text x="90" y="36" font-family="Arial, Helvetica, sans-serif" font-size="24" fill="#111827" font-weight="700">Modeled Probability of HTTP 429 vs Request Rate</text>
<text x="90" y="58" font-family="Arial, Helvetica, sans-serif" font-size="14" fill="#374151">Model: P(429) = 1 - exp(-r / R), where r is req/s and R is token refresh rate (tokens/sec).</text>
<line x1="90" y1="475.00" x2="940" y2="475.00" stroke="#d1d5db" stroke-width="1"/>
<text x="78" y="480.00" text-anchor="end" font-family="Arial, Helvetica, sans-serif" font-size="12" fill="#374151">0</text>
<line x1="90" y1="434.50" x2="940" y2="434.50" stroke="#e5e7eb" stroke-width="1"/>
<line x1="90" y1="394.00" x2="940" y2="394.00" stroke="#e5e7eb" stroke-width="1"/>
<text x="78" y="399.00" text-anchor="end" font-family="Arial, Helvetica, sans-serif" font-size="12" fill="#374151">0.2</text>
<line x1="90" y1="353.50" x2="940" y2="353.50" stroke="#e5e7eb" stroke-width="1"/>
<line x1="90" y1="313.00" x2="940" y2="313.00" stroke="#e5e7eb" stroke-width="1"/>
<text x="78" y="318.00" text-anchor="end" font-family="Arial, Helvetica, sans-serif" font-size="12" fill="#374151">0.4</text>
<line x1="90" y1="272.50" x2="940" y2="272.50" stroke="#e5e7eb" stroke-width="1"/>
<line x1="90" y1="232.00" x2="940" y2="232.00" stroke="#e5e7eb" stroke-width="1"/>
<text x="78" y="237.00" text-anchor="end" font-family="Arial, Helvetica, sans-serif" font-size="12" fill="#374151">0.6</text>
<line x1="90" y1="191.50" x2="940" y2="191.50" stroke="#e5e7eb" stroke-width="1"/>
<line x1="90" y1="151.00" x2="940" y2="151.00" stroke="#e5e7eb" stroke-width="1"/>
<text x="78" y="156.00" text-anchor="end" font-family="Arial, Helvetica, sans-serif" font-size="12" fill="#374151">0.8</text>
<line x1="90" y1="110.50" x2="940" y2="110.50" stroke="#e5e7eb" stroke-width="1"/>
<line x1="90" y1="70.00" x2="940" y2="70.00" stroke="#d1d5db" stroke-width="1"/>
<text x="78" y="75.00" text-anchor="end" font-family="Arial, Helvetica, sans-serif" font-size="12" fill="#374151">1</text>
<line x1="90.00" y1="70" x2="90.00" y2="475" stroke="#d1d5db" stroke-width="1"/>
<text x="90.00" y="499" text-anchor="middle" font-family="Arial, Helvetica, sans-serif" font-size="12" fill="#374151">0</text>
<line x1="175.00" y1="70" x2="175.00" y2="475" stroke="#e5e7eb" stroke-width="1"/>
<line x1="260.00" y1="70" x2="260.00" y2="475" stroke="#e5e7eb" stroke-width="1"/>
<text x="260.00" y="499" text-anchor="middle" font-family="Arial, Helvetica, sans-serif" font-size="12" fill="#374151">1</text>
<line x1="345.00" y1="70" x2="345.00" y2="475" stroke="#e5e7eb" stroke-width="1"/>
<line x1="430.00" y1="70" x2="430.00" y2="475" stroke="#e5e7eb" stroke-width="1"/>
<text x="430.00" y="499" text-anchor="middle" font-family="Arial, Helvetica, sans-serif" font-size="12" fill="#374151">2</text>
<line x1="515.00" y1="70" x2="515.00" y2="475" stroke="#e5e7eb" stroke-width="1"/>
<line x1="600.00" y1="70" x2="600.00" y2="475" stroke="#e5e7eb" stroke-width="1"/>
<text x="600.00" y="499" text-anchor="middle" font-family="Arial, Helvetica, sans-serif" font-size="12" fill="#374151">3</text>
<line x1="685.00" y1="70" x2="685.00" y2="475" stroke="#e5e7eb" stroke-width="1"/>
<line x1="770.00" y1="70" x2="770.00" y2="475" stroke="#e5e7eb" stroke-width="1"/>
<text x="770.00" y="499" text-anchor="middle" font-family="Arial, Helvetica, sans-serif" font-size="12" fill="#374151">4</text>
<line x1="855.00" y1="70" x2="855.00" y2="475" stroke="#e5e7eb" stroke-width="1"/>
<line x1="940.00" y1="70" x2="940.00" y2="475" stroke="#d1d5db" stroke-width="1"/>
<text x="940.00" y="499" text-anchor="middle" font-family="Arial, Helvetica, sans-serif" font-size="12" fill="#374151">5</text>
<line x1="90" y1="475" x2="940" y2="475" stroke="#111827" stroke-width="1.5"/>
<line x1="90" y1="70" x2="90" y2="475" stroke="#111827" stroke-width="1.5"/>
<text x="515.00" y="532" text-anchor="middle" font-family="Arial, Helvetica, sans-serif" font-size="14" fill="#111827">Request Rate r (requests/second)</text>
<text x="26" y="272.50" transform="rotate(-90, 26, 272.50)" text-anchor="middle" font-family="Arial, Helvetica, sans-serif" font-size="14" fill="#111827">Probability of 429</text>
<polyline fill="none" stroke="#2563eb" stroke-width="2.5" points="90.00,475.00 94.25,469.97 98.50,465.00 102.75,460.09 107.00,455.25 111.25,450.46 115.50,445.74 119.75,441.07 124.00,436.46 128.25,431.91 132.50,427.41 136.75,422.97 141.00,418.59 145.25,414.26 149.50,409.98 153.75,405.76 158.00,401.59 162.25,397.47 166.50,393.40 170.75,389.38 175.00,385.41 179.25,381.50 183.50,377.63 187.75,373.81 192.00,370.03 196.25,366.30 200.50,362.62 204.75,358.99 209.00,355.40 213.25,351.85 217.50,348.35 221.75,344.89 226.00,341.48 230.25,338.11 234.50,334.78 238.75,331.49 243.00,328.24 247.25,325.03 251.50,321.86 255.75,318.73 260.00,315.64 264.25,312.59 268.50,309.58 272.75,306.60 277.00,303.66 281.25,300.76 285.50,297.90 289.75,295.06 294.00,292.27 298.25,289.51 302.50,286.78 306.75,284.09 311.00,281.43 315.25,278.80 319.50,276.21 323.75,273.65 328.00,271.12 332.25,268.62 336.50,266.15 340.75,263.71 345.00,261.31 349.25,258.93 353.50,256.59 357.75,254.27 362.00,251.98 366.25,249.72 370.50,247.49 374.75,245.28 379.00,243.10 383.25,240.95 387.50,238.83 391.75,236.73 396.00,234.66 400.25,232.62 404.50,230.60 408.75,228.60 413.00,226.63 417.25,224.68 421.50,222.76 425.75,220.87 430.00,218.99 434.25,217.14 438.50,215.31 442.75,213.51 447.00,211.72 451.25,209.96 455.50,208.23 459.75,206.51 464.00,204.81 468.25,203.14 472.50,201.48 476.75,199.85 481.00,198.24 485.25,196.64 489.50,195.07 493.75,193.52 498.00,191.98 502.25,190.47 506.50,188.97 510.75,187.49 515.00,186.03 519.25,184.59 523.50,183.17 527.75,181.76 532.00,180.38 536.25,179.00 540.50,177.65 544.75,176.31 549.00,174.99 553.25,173.69 557.50,172.40 561.75,171.13 566.00,169.87 570.25,168.63 574.50,167.41 578.75,166.20 583.00,165.00 587.25,163.82 591.50,162.66 595.75,161.50 600.00,160.37 604.25,159.25 608.50,158.14 612.75,157.04 617.00,155.96 621.25,154.89 625.50,153.84 629.75,152.80 634.00,151.77 638.25,150.75 642.50,149.75 646.75,148.76 651.00,147.78 655.25,146.81 659.50,145.86 663.75,144.92 668.00,143.99 672.25,143.07 676.50,142.16 680.75,141.26 685.00,140.38 689.25,139.50 693.50,138.64 697.75,137.79 702.00,136.95 706.25,136.11 710.50,135.29 714.75,134.48 719.00,133.68 723.25,132.89 727.50,132.11 731.75,131.34 736.00,130.58 740.25,129.82 744.50,129.08 748.75,128.35 753.00,127.62 757.25,126.91 761.50,126.20 765.75,125.50 770.00,124.81 774.25,124.13 778.50,123.46 782.75,122.79 787.00,122.14 791.25,121.49 795.50,120.85 799.75,120.22 804.00,119.59 808.25,118.98 812.50,118.37 816.75,117.77 821.00,117.18 825.25,116.59 829.50,116.01 833.75,115.44 838.00,114.88 842.25,114.32 846.50,113.77 850.75,113.22 855.00,112.69 859.25,112.16 863.50,111.63 867.75,111.12 872.00,110.60 876.25,110.10 880.50,109.60 884.75,109.11 889.00,108.62 893.25,108.14 897.50,107.67 901.75,107.20 906.00,106.74 910.25,106.28 914.50,105.83 918.75,105.39 923.00,104.95 927.25,104.51 931.50,104.09 935.75,103.66 940.00,103.24"/>
<polyline fill="none" stroke="#059669" stroke-width="2.5" points="90.00,475.00 94.25,465.00 98.50,455.25 102.75,445.74 107.00,436.46 111.25,427.41 115.50,418.59 119.75,409.98 124.00,401.59 128.25,393.40 132.50,385.41 136.75,377.63 141.00,370.03 145.25,362.62 149.50,355.40 153.75,348.35 158.00,341.48 162.25,334.78 166.50,328.24 170.75,321.86 175.00,315.64 179.25,309.58 183.50,303.66 187.75,297.90 192.00,292.27 196.25,286.78 200.50,281.43 204.75,276.21 209.00,271.12 213.25,266.15 217.50,261.31 221.75,256.59 226.00,251.98 230.25,247.49 234.50,243.10 238.75,238.83 243.00,234.66 247.25,230.60 251.50,226.63 255.75,222.76 260.00,218.99 264.25,215.31 268.50,211.72 272.75,208.23 277.00,204.81 281.25,201.48 285.50,198.24 289.75,195.07 294.00,191.98 298.25,188.97 302.50,186.03 306.75,183.17 311.00,180.38 315.25,177.65 319.50,174.99 323.75,172.40 328.00,169.87 332.25,167.41 336.50,165.00 340.75,162.66 345.00,160.37 349.25,158.14 353.50,155.96 357.75,153.84 362.00,151.77 366.25,149.75 370.50,147.78 374.75,145.86 379.00,143.99 383.25,142.16 387.50,140.38 391.75,138.64 396.00,136.95 400.25,135.29 404.50,133.68 408.75,132.11 413.00,130.58 417.25,129.08 421.50,127.62 425.75,126.20 430.00,124.81 434.25,123.46 438.50,122.14 442.75,120.85 447.00,119.59 451.25,118.37 455.50,117.18 459.75,116.01 464.00,114.88 468.25,113.77 472.50,112.69 476.75,111.63 481.00,110.60 485.25,109.60 489.50,108.62 493.75,107.67 498.00,106.74 502.25,105.83 506.50,104.95 510.75,104.09 515.00,103.24 519.25,102.42 523.50,101.62 527.75,100.84 532.00,100.08 536.25,99.34 540.50,98.61 544.75,97.91 549.00,97.22 553.25,96.55 557.50,95.89 561.75,95.25 566.00,94.63 570.25,94.02 574.50,93.43 578.75,92.85 583.00,92.28 587.25,91.73 591.50,91.20 595.75,90.67 600.00,90.16 604.25,89.67 608.50,89.18 612.75,88.71 617.00,88.24 621.25,87.79 625.50,87.36 629.75,86.93 634.00,86.51 638.25,86.10 642.50,85.70 646.75,85.32 651.00,84.94 655.25,84.57 659.50,84.21 663.75,83.86 668.00,83.52 672.25,83.18 676.50,82.86 680.75,82.54 685.00,82.23 689.25,81.93 693.50,81.63 697.75,81.35 702.00,81.07 706.25,80.79 710.50,80.53 714.75,80.27 719.00,80.01 723.25,79.77 727.50,79.52 731.75,79.29 736.00,79.06 740.25,78.84 744.50,78.62 748.75,78.41 753.00,78.20 757.25,78.00 761.50,77.80 765.75,77.61 770.00,77.42 774.25,77.23 778.50,77.06 782.75,76.88 787.00,76.71 791.25,76.55 795.50,76.38 799.75,76.23 804.00,76.07 808.25,75.92 812.50,75.78 816.75,75.63 821.00,75.50 825.25,75.36 829.50,75.23 833.75,75.10 838.00,74.97 842.25,74.85 846.50,74.73 850.75,74.61 855.00,74.50 859.25,74.39 863.50,74.28 867.75,74.17 872.00,74.07 876.25,73.97 880.50,73.87 884.75,73.78 889.00,73.68 893.25,73.59 897.50,73.50 901.75,73.42 906.00,73.33 910.25,73.25 914.50,73.17 918.75,73.09 923.00,73.02 927.25,72.94 931.50,72.87 935.75,72.80 940.00,72.73"/>
<polyline fill="none" stroke="#dc2626" stroke-width="2.5" points="90.00,475.00 94.25,455.25 98.50,436.46 102.75,418.59 107.00,401.59 111.25,385.41 115.50,370.03 119.75,355.40 124.00,341.48 128.25,328.24 132.50,315.64 136.75,303.66 141.00,292.27 145.25,281.43 149.50,271.12 153.75,261.31 158.00,251.98 162.25,243.10 166.50,234.66 170.75,226.63 175.00,218.99 179.25,211.72 183.50,204.81 187.75,198.24 192.00,191.98 196.25,186.03 200.50,180.38 204.75,174.99 209.00,169.87 213.25,165.00 217.50,160.37 221.75,155.96 226.00,151.77 230.25,147.78 234.50,143.99 238.75,140.38 243.00,136.95 247.25,133.68 251.50,130.58 255.75,127.62 260.00,124.81 264.25,122.14 268.50,119.59 272.75,117.18 277.00,114.88 281.25,112.69 285.50,110.60 289.75,108.62 294.00,106.74 298.25,104.95 302.50,103.24 306.75,101.62 311.00,100.08 315.25,98.61 319.50,97.22 323.75,95.89 328.00,94.63 332.25,93.43 336.50,92.28 340.75,91.20 345.00,90.16 349.25,89.18 353.50,88.24 357.75,87.36 362.00,86.51 366.25,85.70 370.50,84.94 374.75,84.21 379.00,83.52 383.25,82.86 387.50,82.23 391.75,81.63 396.00,81.07 400.25,80.53 404.50,80.01 408.75,79.52 413.00,79.06 417.25,78.62 421.50,78.20 425.75,77.80 430.00,77.42 434.25,77.06 438.50,76.71 442.75,76.38 447.00,76.07 451.25,75.78 455.50,75.50 459.75,75.23 464.00,74.97 468.25,74.73 472.50,74.50 476.75,74.28 481.00,74.07 485.25,73.87 489.50,73.68 493.75,73.50 498.00,73.33 502.25,73.17 506.50,73.02 510.75,72.87 515.00,72.73 519.25,72.60 523.50,72.47 527.75,72.35 532.00,72.23 536.25,72.13 540.50,72.02 544.75,71.92 549.00,71.83 553.25,71.74 557.50,71.66 561.75,71.57 566.00,71.50 570.25,71.42 574.50,71.36 578.75,71.29 583.00,71.23 587.25,71.17 591.50,71.11 595.75,71.06 600.00,71.00 604.25,70.95 608.50,70.91 612.75,70.86 617.00,70.82 621.25,70.78 625.50,70.74 629.75,70.71 634.00,70.67 638.25,70.64 642.50,70.61 646.75,70.58 651.00,70.55 655.25,70.52 659.50,70.50 663.75,70.47 668.00,70.45 672.25,70.43 676.50,70.41 680.75,70.39 685.00,70.37 689.25,70.35 693.50,70.33 697.75,70.32 702.00,70.30 706.25,70.29 710.50,70.27 714.75,70.26 719.00,70.25 723.25,70.24 727.50,70.22 731.75,70.21 736.00,70.20 740.25,70.19 744.50,70.18 748.75,70.17 753.00,70.17 757.25,70.16 761.50,70.15 765.75,70.14 770.00,70.14 774.25,70.13 778.50,70.12 782.75,70.12 787.00,70.11 791.25,70.11 795.50,70.10 799.75,70.10 804.00,70.09 808.25,70.09 812.50,70.08 816.75,70.08 821.00,70.07 825.25,70.07 829.50,70.07 833.75,70.06 838.00,70.06 842.25,70.06 846.50,70.06 850.75,70.05 855.00,70.05 859.25,70.05 863.50,70.05 867.75,70.04 872.00,70.04 876.25,70.04 880.50,70.04 884.75,70.04 889.00,70.03 893.25,70.03 897.50,70.03 901.75,70.03 906.00,70.03 910.25,70.03 914.50,70.02 918.75,70.02 923.00,70.02 927.25,70.02 931.50,70.02 935.75,70.02 940.00,70.02"/>
<polyline fill="none" stroke="#7c3aed" stroke-width="2.5" points="90.00,475.00 94.25,427.41 98.50,385.41 102.75,348.35 107.00,315.64 111.25,286.78 115.50,261.31 119.75,238.83 124.00,218.99 128.25,201.48 132.50,186.03 136.75,172.40 141.00,160.37 145.25,149.75 149.50,140.38 153.75,132.11 158.00,124.81 162.25,118.37 166.50,112.69 170.75,107.67 175.00,103.24 179.25,99.34 183.50,95.89 187.75,92.85 192.00,90.16 196.25,87.79 200.50,85.70 204.75,83.86 209.00,82.23 213.25,80.79 217.50,79.52 221.75,78.41 226.00,77.42 230.25,76.55 234.50,75.78 238.75,75.10 243.00,74.50 247.25,73.97 251.50,73.50 255.75,73.09 260.00,72.73 264.25,72.41 268.50,72.13 272.75,71.88 277.00,71.66 281.25,71.46 285.50,71.29 289.75,71.14 294.00,71.00 298.25,70.89 302.50,70.78 306.75,70.69 311.00,70.61 315.25,70.54 319.50,70.47 323.75,70.42 328.00,70.37 332.25,70.33 336.50,70.29 340.75,70.25 345.00,70.22 349.25,70.20 353.50,70.17 357.75,70.15 362.00,70.14 366.25,70.12 370.50,70.11 374.75,70.09 379.00,70.08 383.25,70.07 387.50,70.06 391.75,70.06 396.00,70.05 400.25,70.04 404.50,70.04 408.75,70.03 413.00,70.03 417.25,70.03 421.50,70.02 425.75,70.02 430.00,70.02 434.25,70.02 438.50,70.01 442.75,70.01 447.00,70.01 451.25,70.01 455.50,70.01 459.75,70.01 464.00,70.01 468.25,70.01 472.50,70.01 476.75,70.00 481.00,70.00 485.25,70.00 489.50,70.00 493.75,70.00 498.00,70.00 502.25,70.00 506.50,70.00 510.75,70.00 515.00,70.00 519.25,70.00 523.50,70.00 527.75,70.00 532.00,70.00 536.25,70.00 540.50,70.00 544.75,70.00 549.00,70.00 553.25,70.00 557.50,70.00 561.75,70.00 566.00,70.00 570.25,70.00 574.50,70.00 578.75,70.00 583.00,70.00 587.25,70.00 591.50,70.00 595.75,70.00 600.00,70.00 604.25,70.00 608.50,70.00 612.75,70.00 617.00,70.00 621.25,70.00 625.50,70.00 629.75,70.00 634.00,70.00 638.25,70.00 642.50,70.00 646.75,70.00 651.00,70.00 655.25,70.00 659.50,70.00 663.75,70.00 668.00,70.00 672.25,70.00 676.50,70.00 680.75,70.00 685.00,70.00 689.25,70.00 693.50,70.00 697.75,70.00 702.00,70.00 706.25,70.00 710.50,70.00 714.75,70.00 719.00,70.00 723.25,70.00 727.50,70.00 731.75,70.00 736.00,70.00 740.25,70.00 744.50,70.00 748.75,70.00 753.00,70.00 757.25,70.00 761.50,70.00 765.75,70.00 770.00,70.00 774.25,70.00 778.50,70.00 782.75,70.00 787.00,70.00 791.25,70.00 795.50,70.00 799.75,70.00 804.00,70.00 808.25,70.00 812.50,70.00 816.75,70.00 821.00,70.00 825.25,70.00 829.50,70.00 833.75,70.00 838.00,70.00 842.25,70.00 846.50,70.00 850.75,70.00 855.00,70.00 859.25,70.00 863.50,70.00 867.75,70.00 872.00,70.00 876.25,70.00 880.50,70.00 884.75,70.00 889.00,70.00 893.25,70.00 897.50,70.00 901.75,70.00 906.00,70.00 910.25,70.00 914.50,70.00 918.75,70.00 923.00,70.00 927.25,70.00 931.50,70.00 935.75,70.00 940.00,70.00"/>
<rect x="711" y="60" width="225" height="132" fill="#ffffff" stroke="#d1d5db" rx="6"/>
<text x="725" y="82" font-family="Arial, Helvetica, sans-serif" font-size="13" fill="#111827" font-weight="700">Refresh Rate R (tok/s)</text>
<line x1="725" y1="106" x2="749" y2="106" stroke="#2563eb" stroke-width="3"/>
<text x="757" y="110" font-family="Arial, Helvetica, sans-serif" font-size="12" fill="#111827">R = 2.0</text>
<line x1="725" y1="130" x2="749" y2="130" stroke="#059669" stroke-width="3"/>
<text x="757" y="134" font-family="Arial, Helvetica, sans-serif" font-size="12" fill="#111827">R = 1.0</text>
<line x1="725" y1="154" x2="749" y2="154" stroke="#dc2626" stroke-width="3"/>
<text x="757" y="158" font-family="Arial, Helvetica, sans-serif" font-size="12" fill="#111827">R = 0.5</text>
<line x1="725" y1="178" x2="749" y2="178" stroke="#7c3aed" stroke-width="3"/>
<text x="757" y="182" font-family="Arial, Helvetica, sans-serif" font-size="12" fill="#111827">R = 0.2</text>
</svg>
