<svg viewBox="0 0 1300 950" width="1300" height="950" xmlns="http://www.w3.org/2000/svg">
  <defs>
    <marker id="ah" markerWidth="10" markerHeight="10" refX="9" refY="3" orient="auto" markerUnits="strokeWidth">
      <path d="M0,0 L9,3 L0,6 Z" fill="#f4f4f5"/>
    </marker>
  </defs>
  <style>
    .text { fill: #f4f4f5; font-family: system-ui, sans-serif; }
    .arrow-line { fill: none; stroke: #f4f4f5; stroke-width: 2; }
    .badge-circle { fill: #27272a; stroke: #f4f4f5; stroke-width: 1.5; }
    .box { fill: none; stroke: #f4f4f5; stroke-width: 1.5; }
  </style>

  <!-- ============= ENTITIES ============= -->
  <g transform="translate(170,210)">
    <circle r="62" fill="#3DBE5C"/>
    <circle cy="-14" r="17" fill="#fff"/>
    <path d="M-29 33 C -29 10, 29 10, 29 33 Z" fill="#fff"/>
  </g>
  <g transform="translate(260,250)">
    <rect x="-18" y="-26" width="36" height="50" rx="2" fill="#fff" stroke="#999" stroke-width="1.2"/>
    <path d="M -2 -20 L 4 -16 L 4 -8 L 8 -4 L 14 -10 L 8 -16 L 4 -16" fill="#666" stroke="none"/>
    <rect x="-12" y="14" width="24" height="14" rx="3" fill="#34D399"/>
    <text x="0" y="24" text-anchor="middle" font-size="10" font-weight="700" fill="#fff" font-family="system-ui">SDK</text>
  </g>
  <text class="text" x="170" y="305" text-anchor="middle" font-size="18" font-weight="600">User</text>

  <!-- Engine directly BELOW User -->
  <g transform="translate(170,720)">
    <circle r="60" fill="#5FAFF0"/>
    <path d="M -10 -28 L 6 -8 L -2 -2 L 10 28 L -6 8 L 2 2 Z" fill="#fff"/>
  </g>
  <text class="text" x="170" y="815" text-anchor="middle" font-size="18" font-weight="600">Serverless</text>
  <text class="text" x="170" y="840" text-anchor="middle" font-size="18" font-weight="600">Engine</text>

  <text class="text" x="725" y="60" font-size="18" font-weight="600">Workergroup</text>
  <rect class="box" x="700" y="75" width="560" height="820" rx="6"/>

  <text class="text" x="720" y="110" font-size="15">GPU Instance</text>
  <rect class="box" x="710" y="120" width="540" height="760" rx="4"/>

  <!-- Instance box 1 -->
  <rect class="box" x="725" y="145" width="510" height="220" rx="3"/>
  <text class="text" x="745" y="175" font-size="15" font-weight="600">ip_address_1</text>
  <text x="745" y="205" font-size="15" font-weight="600" fill="#4A90E2" font-family="system-ui">Loading</text>
  <g transform="translate(900,265)">
    <circle r="44" fill="#1F4F8B"/>
    <rect x="-12" y="-26" width="24" height="20" rx="3" fill="#fff"/>
    <line x1="0" y1="-26" x2="0" y2="-30" stroke="#fff" stroke-width="2"/>
    <circle cx="0" cy="-32" r="2.5" fill="#fff"/>
    <circle cx="-4" cy="-17" r="2" fill="#1F4F8B"/>
    <circle cx="4" cy="-17" r="2" fill="#1F4F8B"/>
    <rect x="-18" y="-2" width="36" height="22" rx="3" fill="#fff"/>
    <rect x="-9" y="4" width="18" height="11" rx="1" fill="#1F4F8B"/>
    <rect x="-25" y="0" width="6" height="14" rx="2" fill="#fff"/>
    <rect x="19" y="0" width="6" height="14" rx="2" fill="#fff"/>
  </g>
  <text class="text" x="900" y="335" text-anchor="middle" font-size="15">PyWorker</text>
  <line class="arrow-line" x1="950" y1="258" x2="1040" y2="258" marker-end="url(#ah)"/>
  <line class="arrow-line" x1="1040" y1="278" x2="950" y2="278" marker-end="url(#ah)"/>
  <g transform="translate(1090,265)">
    <circle r="44" fill="#5FAFF0"/>
    <path d="M -20 -10 Q -24 -4 -24 4 Q -24 14 -16 18 Q -10 22 -2 22 L -2 -20 Q -10 -24 -16 -18 Q -20 -16 -20 -10 Z" fill="#fff"/>
    <path d="M 20 -10 Q 24 -4 24 4 Q 24 14 16 18 Q 10 22 2 22 L 2 -20 Q 10 -24 16 -18 Q 20 -16 20 -10 Z" fill="#fff"/>
    <line x1="0" y1="-22" x2="0" y2="22" stroke="#5FAFF0" stroke-width="2"/>
    <path d="M -16 -4 Q -10 -8 -4 -4" fill="none" stroke="#5FAFF0" stroke-width="1.5"/>
    <path d="M -16 8 Q -10 4 -4 8" fill="none" stroke="#5FAFF0" stroke-width="1.5"/>
    <path d="M 4 -4 Q 10 -8 16 -4" fill="none" stroke="#5FAFF0" stroke-width="1.5"/>
    <path d="M 4 8 Q 10 4 16 8" fill="none" stroke="#5FAFF0" stroke-width="1.5"/>
  </g>
  <text class="text" x="1090" y="335" text-anchor="middle" font-size="15">Model Inference</text>

  <!-- Instance box 2 -->
  <rect class="box" x="725" y="385" width="510" height="220" rx="3"/>
  <text class="text" x="745" y="415" font-size="15" font-weight="600">ip_address_2</text>
  <text x="745" y="445" font-size="15" font-weight="600" fill="#34A853" font-family="system-ui">Ready</text>
  <g transform="translate(900,505)">
    <circle r="44" fill="#1F4F8B"/>
    <rect x="-12" y="-26" width="24" height="20" rx="3" fill="#fff"/>
    <line x1="0" y1="-26" x2="0" y2="-30" stroke="#fff" stroke-width="2"/>
    <circle cx="0" cy="-32" r="2.5" fill="#fff"/>
    <circle cx="-4" cy="-17" r="2" fill="#1F4F8B"/>
    <circle cx="4" cy="-17" r="2" fill="#1F4F8B"/>
    <rect x="-18" y="-2" width="36" height="22" rx="3" fill="#fff"/>
    <rect x="-9" y="4" width="18" height="11" rx="1" fill="#1F4F8B"/>
    <rect x="-25" y="0" width="6" height="14" rx="2" fill="#fff"/>
    <rect x="19" y="0" width="6" height="14" rx="2" fill="#fff"/>
  </g>
  <text class="text" x="900" y="575" text-anchor="middle" font-size="15">PyWorker</text>
  <line class="arrow-line" x1="950" y1="498" x2="1040" y2="498" marker-end="url(#ah)"/>
  <line class="arrow-line" x1="1040" y1="518" x2="950" y2="518" marker-end="url(#ah)"/>
  <g>
    <circle class="badge-circle" cx="995" cy="478" r="14"/>
    <text class="text" x="995" y="483" text-anchor="middle" font-size="14">4</text>
  </g>
  <g transform="translate(1090,505)">
    <circle r="44" fill="#5FAFF0"/>
    <path d="M -20 -10 Q -24 -4 -24 4 Q -24 14 -16 18 Q -10 22 -2 22 L -2 -20 Q -10 -24 -16 -18 Q -20 -16 -20 -10 Z" fill="#fff"/>
    <path d="M 20 -10 Q 24 -4 24 4 Q 24 14 16 18 Q 10 22 2 22 L 2 -20 Q 10 -24 16 -18 Q 20 -16 20 -10 Z" fill="#fff"/>
    <line x1="0" y1="-22" x2="0" y2="22" stroke="#5FAFF0" stroke-width="2"/>
    <path d="M -16 -4 Q -10 -8 -4 -4" fill="none" stroke="#5FAFF0" stroke-width="1.5"/>
    <path d="M -16 8 Q -10 4 -4 8" fill="none" stroke="#5FAFF0" stroke-width="1.5"/>
    <path d="M 4 -4 Q 10 -8 16 -4" fill="none" stroke="#5FAFF0" stroke-width="1.5"/>
    <path d="M 4 8 Q 10 4 16 8" fill="none" stroke="#5FAFF0" stroke-width="1.5"/>
  </g>
  <text class="text" x="1090" y="575" text-anchor="middle" font-size="15">Model Inference</text>

  <!-- Instance box 3 -->
  <rect class="box" x="725" y="625" width="510" height="220" rx="3"/>
  <text class="text" x="745" y="655" font-size="15" font-weight="600">ip_address_3</text>
  <text x="745" y="685" font-size="15" font-weight="600" fill="#34A853" font-family="system-ui">Ready</text>
  <g transform="translate(900,745)">
    <circle r="44" fill="#1F4F8B"/>
    <rect x="-12" y="-26" width="24" height="20" rx="3" fill="#fff"/>
    <line x1="0" y1="-26" x2="0" y2="-30" stroke="#fff" stroke-width="2"/>
    <circle cx="0" cy="-32" r="2.5" fill="#fff"/>
    <circle cx="-4" cy="-17" r="2" fill="#1F4F8B"/>
    <circle cx="4" cy="-17" r="2" fill="#1F4F8B"/>
    <rect x="-18" y="-2" width="36" height="22" rx="3" fill="#fff"/>
    <rect x="-9" y="4" width="18" height="11" rx="1" fill="#1F4F8B"/>
    <rect x="-25" y="0" width="6" height="14" rx="2" fill="#fff"/>
    <rect x="19" y="0" width="6" height="14" rx="2" fill="#fff"/>
  </g>
  <text class="text" x="900" y="815" text-anchor="middle" font-size="15">PyWorker</text>
  <line class="arrow-line" x1="950" y1="738" x2="1040" y2="738" marker-end="url(#ah)"/>
  <line class="arrow-line" x1="1040" y1="758" x2="950" y2="758" marker-end="url(#ah)"/>
  <g transform="translate(1090,745)">
    <circle r="44" fill="#5FAFF0"/>
    <path d="M -20 -10 Q -24 -4 -24 4 Q -24 14 -16 18 Q -10 22 -2 22 L -2 -20 Q -10 -24 -16 -18 Q -20 -16 -20 -10 Z" fill="#fff"/>
    <path d="M 20 -10 Q 24 -4 24 4 Q 24 14 16 18 Q 10 22 2 22 L 2 -20 Q 10 -24 16 -18 Q 20 -16 20 -10 Z" fill="#fff"/>
    <line x1="0" y1="-22" x2="0" y2="22" stroke="#5FAFF0" stroke-width="2"/>
    <path d="M -16 -4 Q -10 -8 -4 -4" fill="none" stroke="#5FAFF0" stroke-width="1.5"/>
    <path d="M -16 8 Q -10 4 -4 8" fill="none" stroke="#5FAFF0" stroke-width="1.5"/>
    <path d="M 4 -4 Q 10 -8 16 -4" fill="none" stroke="#5FAFF0" stroke-width="1.5"/>
    <path d="M 4 8 Q 10 4 16 8" fill="none" stroke="#5FAFF0" stroke-width="1.5"/>
  </g>
  <text class="text" x="1090" y="815" text-anchor="middle" font-size="15">Model Inference</text>

  <circle cx="1100" cy="900" r="3" fill="#f4f4f5"/>
  <circle cx="1100" cy="918" r="3" fill="#f4f4f5"/>
  <circle cx="1100" cy="936" r="3" fill="#f4f4f5"/>

  <!-- ============= ARROWS (User <-> Engine straight vertical, since Engine is below User) ============= -->
  <!-- 1: User -> Engine (left vertical) -->
  <line class="arrow-line" x1="135" y1="280" x2="135" y2="654" marker-end="url(#ah)"/>
  <g>
    <circle class="badge-circle" cx="55" cy="470" r="15"/>
    <text class="text" x="55" y="476" text-anchor="middle" font-size="14">1</text>
  </g>
  <text class="text" x="55" y="505" text-anchor="middle" font-size="15">Route Requests</text>

  <!-- 2: Engine -> User (right vertical) -->
  <line class="arrow-line" x1="205" y1="654" x2="205" y2="280" marker-end="url(#ah)"/>
  <g>
    <circle class="badge-circle" cx="325" cy="470" r="15"/>
    <text class="text" x="325" y="476" text-anchor="middle" font-size="14">2</text>
  </g>
  <text class="text" x="325" y="505" text-anchor="middle" font-size="15">Responses</text>

  <!-- 3: User -> Workergroup top arc -->
  <path class="arrow-line" d="M 234 180 C 440 100, 620 180, 695 380" marker-end="url(#ah)"/>
  <g>
    <circle class="badge-circle" cx="450" cy="105" r="15"/>
    <text class="text" x="450" y="111" text-anchor="middle" font-size="14">3</text>
  </g>
  <text class="text" x="450" y="140" text-anchor="middle" font-size="16">Inference Requests</text>

  <!-- 5: Workergroup -> User bottom arc -->
  <path class="arrow-line" d="M 695 470 C 540 350, 380 260, 232 235" marker-end="url(#ah)"/>
  <g>
    <circle class="badge-circle" cx="465" cy="358" r="15"/>
    <text class="text" x="465" y="364" text-anchor="middle" font-size="14">5</text>
  </g>
  <text class="text" x="465" y="393" text-anchor="middle" font-size="16">Results</text>

  <!-- 6: Workergroup -> Engine -->
  <path class="arrow-line" d="M 695 555 C 540 660, 380 710, 238 720" marker-end="url(#ah)"/>
  <g>
    <circle class="badge-circle" cx="465" cy="750" r="15"/>
    <text class="text" x="465" y="756" text-anchor="middle" font-size="14">6</text>
  </g>
  <text class="text" x="465" y="785" text-anchor="middle" font-size="16">Status &amp; Metrics</text>
</svg>
